<svg width="329" height="329" viewBox="0 0 329 329" fill="none" xmlns="http://www.w3.org/2000/svg">
<path d="M164.5 0.378906C73.9471 0.378906 0.379883 73.9461 0.379883 164.499C0.379883 246.702 61.0113 314.731 139.978 326.594L148.545 327.89V198.564H109.774V172.309H148.545V137.442C148.545 115.971 153.698 101.831 162.227 92.9587C170.756 84.0868 183.359 79.6123 200.896 79.6123C214.92 79.6123 220.375 80.462 225.564 81.0985V102.59H207.307C196.949 102.59 188.45 108.369 184.039 116.067C179.627 123.765 178.254 132.957 178.254 142.323V172.294H223.932L219.867 198.55H178.254V328.094L186.72 326.943C266.809 316.081 328.62 247.505 328.62 164.499C328.62 73.9461 255.053 0.378906 164.5 0.378906ZM164.5 15.2989C246.989 15.2989 313.7 82.0095 313.7 164.499C313.7 237.083 261.747 296.778 193.174 310.217V213.47H232.66L241.329 157.374H193.174V142.323C193.174 134.583 194.59 127.649 196.977 123.483C199.364 119.318 201.665 117.51 207.308 117.51H240.484V67.5917L234.015 66.7175C229.54 66.112 219.325 64.6922 200.897 64.6922C180.731 64.6922 163.423 70.1854 151.474 82.6137C139.526 95.042 133.625 113.548 133.625 137.442V157.389H94.8538V213.484H133.625V309.75C66.1548 295.458 15.3 236.297 15.3 164.499C15.3 82.0095 82.0105 15.2989 164.5 15.2989Z" fill="white"/>
</svg>
