<svg width="373" height="373" viewBox="0 0 373 373" fill="none" xmlns="http://www.w3.org/2000/svg">
<path d="M119.36 22.3789C65.8902 22.3789 22.3799 65.8892 22.3799 119.359V253.639C22.3799 307.109 65.8902 350.619 119.36 350.619H253.64C307.11 350.619 350.62 307.109 350.62 253.639V119.359C350.62 65.8892 307.11 22.3789 253.64 22.3789H119.36ZM119.36 37.2989H253.64C299.045 37.2989 335.7 73.9538 335.7 119.359V253.639C335.7 299.044 299.045 335.699 253.64 335.699H119.36C73.9547 335.699 37.2999 299.044 37.2999 253.639V119.359C37.2999 73.9538 73.9547 37.2989 119.36 37.2989ZM276.02 82.0589C267.78 82.0589 261.1 88.7388 261.1 96.9789C261.1 105.219 267.78 111.899 276.02 111.899C284.26 111.899 290.94 105.219 290.94 96.9789C290.94 88.7388 284.26 82.0589 276.02 82.0589ZM186.5 104.439C141.268 104.439 104.44 141.267 104.44 186.499C104.44 231.731 141.268 268.559 186.5 268.559C231.732 268.559 268.56 231.731 268.56 186.499C268.56 141.267 231.732 104.439 186.5 104.439ZM186.5 119.359C223.669 119.359 253.64 149.33 253.64 186.499C253.64 223.668 223.669 253.639 186.5 253.639C149.331 253.639 119.36 223.668 119.36 186.499C119.36 149.33 149.331 119.359 186.5 119.359Z" fill="white"/>
</svg>
