<svg width="373" height="373" viewBox="0 0 373 373" fill="none" xmlns="http://www.w3.org/2000/svg">
<g clip-path="url(#clip0_624_56)">
<path d="M255.271 40.7969C210.657 40.7969 174.377 77.0769 174.377 121.691C174.377 124.372 175.047 126.995 175.31 129.618C120.146 124.343 71.3649 97.7668 38.232 57.1156C36.6876 55.1632 34.2981 54.1142 31.7919 54.289C29.315 54.4638 27.1003 55.8917 25.8764 58.0481C18.9118 70.0249 14.9195 83.8085 14.9195 98.6119C14.9195 116.533 21.3305 132.94 31.2383 146.403C29.315 145.557 27.2169 145.091 25.4101 144.071C23.1081 142.847 20.3397 142.906 18.0958 144.246C15.852 145.587 14.4824 148.005 14.4533 150.599V151.531C14.4533 179.011 28.6739 202.877 49.6551 217.506C49.422 217.476 49.1889 217.564 48.9558 217.506C46.3914 217.069 43.7978 217.972 42.0786 219.924C40.3593 221.877 39.8056 224.587 40.5633 227.064C48.8976 252.97 70.1702 272.756 96.5133 279.983C75.5321 292.455 51.1997 299.799 24.944 299.799C19.2615 299.799 13.8122 299.507 8.39209 298.866C4.89521 298.4 1.54403 300.44 0.378408 303.762C-0.816386 307.084 0.495007 310.785 3.49646 312.621C37.1539 334.214 77.1057 346.89 120.059 346.89C189.676 346.89 244.285 317.808 280.915 276.253C317.545 234.699 336.632 180.73 336.632 130.317C336.632 128.19 336.457 126.121 336.399 124.023C350.066 113.561 362.276 101.293 371.834 86.9556C373.728 84.1873 373.524 80.4864 371.339 77.922C369.182 75.3576 365.54 74.5708 362.509 75.9988C358.662 77.7181 354.175 77.8929 350.153 79.2625C355.457 72.1813 360.003 64.5465 362.742 55.95C363.675 53.0068 362.655 49.7722 360.236 47.8489C357.817 45.9547 354.437 45.7216 351.785 47.3244C339.051 54.8718 324.947 60.1754 310.056 63.41C295.602 49.8888 276.573 40.7969 255.271 40.7969ZM255.271 55.7169C274.3 55.7169 291.493 63.8471 303.528 76.6981C305.335 78.5631 307.987 79.3499 310.522 78.7963C320.255 76.873 329.493 74.0463 338.497 70.4038C333.31 77.3975 326.899 83.3713 319.381 87.8881C315.971 89.5492 314.369 93.4831 315.622 97.0674C316.846 100.623 320.576 102.692 324.276 101.876C331.736 100.972 338.381 97.9417 345.491 96.0475C339.109 102.954 332.115 109.19 324.51 114.698C322.441 116.213 321.304 118.661 321.479 121.225C321.596 124.256 321.712 127.257 321.712 130.317C321.712 176.942 303.82 227.559 269.725 266.229C235.631 304.898 185.567 331.97 120.059 331.97C90.3063 331.97 62.2147 325.384 36.8333 313.786C68.3051 311.368 97.3292 300.236 120.758 281.848C123.206 279.896 124.168 276.632 123.177 273.66C122.186 270.687 119.447 268.647 116.329 268.56C91.7342 268.123 71.1318 253.815 60.1458 233.591C60.5538 233.591 60.9034 233.591 61.3114 233.591C68.684 233.591 75.9691 232.659 82.7589 230.794C86.0226 229.832 88.2665 226.801 88.1499 223.392C88.0334 219.983 85.6147 217.068 82.2926 216.34C55.7456 210.978 35.8425 189.356 31.2383 162.488C38.7565 165.082 46.4497 167.121 54.7839 167.384C58.1933 167.588 61.2822 165.46 62.3313 162.226C63.3804 158.991 62.0982 155.436 59.2133 153.629C41.4958 141.769 29.8395 121.575 29.8395 98.6119C29.8395 90.1029 32.0542 82.2931 34.9683 74.8331C72.2683 115.776 124.488 142.964 183.469 145.936C185.8 146.053 188.073 145.091 189.588 143.314C191.104 141.507 191.687 139.117 191.162 136.844C190.026 132.007 189.297 126.878 189.297 121.691C189.297 85.1489 218.729 55.7169 255.271 55.7169Z" fill="white"/>
</g>
<defs>
<clipPath id="clip0_624_56">
<rect width="373" height="373" fill="white"/>
</clipPath>
</defs>
</svg>
