<svg width="7616" height="1693" viewBox="0 0 7616 1693" fill="none" xmlns="http://www.w3.org/2000/svg">
<path d="M-1 169.301L180.433 253.951C361.865 338.601 723.673 507.901 1088.65 507.901C1449.93 507.901 1813.33 338.601 2173.02 451.291C2538 566.098 2902.98 957.604 3262.67 1128.49C3626.07 1296.2 3987.35 1243.3 4352.33 1213.14C4714.13 1185.1 5077 1185.1 5441.98 1241.71C5802.2 1296.2 6166.65 1412.6 6526.35 1467.09C6890.8 1523.7 7251.02 1523.7 7436.15 1523.7H7616V1693H7434.57C7253.13 1693 6891.33 1693 6526.35 1693C6165.07 1693 5801.67 1693 5441.98 1693C5077 1693 4712.02 1693 4352.33 1693C3988.93 1693 3627.65 1693 3262.67 1693C2900.87 1693 2538 1693 2173.02 1693C1812.8 1693 1448.35 1693 1088.65 1693C724.202 1693 363.981 1693 178.846 1693H-1V169.301Z" fill="#F1E4D4"/>
</svg>
