<svg width="7616" height="1524" viewBox="0 0 7616 1524" fill="none" xmlns="http://www.w3.org/2000/svg">
<path d="M7616 1523.7L7434.57 1439.05C7253.13 1354.4 6891.33 1185.1 6526.35 1185.1C6165.07 1185.1 5801.67 1354.4 5441.98 1241.71C5077 1126.9 4712.02 735.396 4352.33 564.509C3988.93 396.796 3627.65 449.702 3262.67 479.859C2900.87 507.899 2538 507.899 2173.02 451.29C1812.8 396.796 1448.35 280.402 1088.65 225.909C724.202 169.299 363.981 169.299 178.846 169.299H-1V-0.000732422H180.433C361.866 -0.000732422 723.673 -0.000732422 1088.65 -0.000732422C1449.93 -0.000732422 1813.33 -0.000732422 2173.02 -0.000732422C2538 -0.000732422 2902.98 -0.000732422 3262.67 -0.000732422C3626.07 -0.000732422 3987.35 -0.000732422 4352.33 -0.000732422C4714.13 -0.000732422 5077 -0.000732422 5441.98 -0.000732422C5802.2 -0.000732422 6166.65 -0.000732422 6526.35 -0.000732422C6890.8 -0.000732422 7251.02 -0.000732422 7436.15 -0.000732422H7616V1523.7Z" fill="#F1E4D4"/>
</svg>
