<svg width="373" height="373" viewBox="0 0 373 373" fill="none" xmlns="http://www.w3.org/2000/svg">
<path d="M182.041 67.1406C132.794 67.1406 86.5475 70.8706 61.9237 76.0868C45.5175 79.8168 31.3261 91.0068 28.3537 108.171C25.3813 126.063 22.3799 152.931 22.3799 186.501C22.3799 220.071 25.3522 246.181 29.0822 264.831C32.0837 281.237 46.2461 293.184 62.6522 296.914C88.7914 302.131 133.522 305.861 182.77 305.861C232.018 305.861 276.748 302.131 302.858 296.914C319.294 293.184 333.456 281.994 336.428 264.831C339.43 246.181 343.16 219.342 343.888 185.772C343.888 152.202 340.158 125.334 336.428 106.684C333.456 90.2783 319.294 78.3306 302.858 74.6006C276.748 70.8706 231.26 67.1406 182.041 67.1406ZM182.041 82.0606C235.748 82.0606 278.992 86.5192 299.886 90.2492C311.076 93.2506 320.022 100.711 321.508 110.415C325.996 134.281 328.968 159.662 328.968 185.772C328.24 217.827 324.51 243.937 321.508 262.587C319.294 276.749 304.374 281.237 299.886 282.752C273.018 287.968 228.258 291.669 183.498 291.669C138.738 291.669 93.2499 288.697 67.1399 282.752C55.9499 279.751 47.0037 272.291 45.5175 262.587C39.5437 241.693 37.2999 214.097 37.2999 186.501C37.2999 152.173 40.3013 126.821 43.2737 111.172C45.5175 96.9808 61.1661 92.4931 64.8961 91.007C89.5199 85.7908 135.037 82.0606 182.041 82.0606ZM141.74 126.821V246.181L246.18 186.501L141.74 126.821ZM156.66 152.202L216.34 186.501L156.66 220.799V152.202Z" fill="white"/>
</svg>
